PathFileType	4	(X/Y/Z)	C:\Users\°ÂÌØÂü\Desktop\20210112\bx_n_5_901-Unnamed.trc
DataRate	CameraRate	NumFrames	NumMarkers	Units	OrigDataRate	OrigDataStartFrame	OrigNumFrames
50.00	50.00	       4	0	mm	50.00	412	       470
Frame#	Time	
		

412	8.220	-670.49048	93.37244	1850.47058	-652.49261	239.32060	1068.33386	-721.71490	147.72926	575.60498	-634.09241	-5.06788	1052.02795	-623.66779	-6.65006	808.36542	-675.06610	51.86844	161.81870	-739.30023	271.71887	746.11865	-700.26599	-74.35701	876.80786	-762.50232	253.95789	642.92157	-703.35419	209.63261	537.81042	-794.10303	261.71356	499.80692	-518.03241	-72.83746	143.63379	-549.46191	-24.02390	163.57101	-794.70306	34.47033	173.32036	-600.25555	27.58683	169.04747	-721.13141	65.95755	218.35176	-714.54199	157.52576	220.10281	-797.00598	181.88646	182.91962	-770.20300	231.21594	203.76694	-593.02136	218.93137	174.75441	-882.52441	296.18323	144.67850	-556.77875	253.73405	164.82629	-659.63715	297.61322	157.41061	-623.35883	306.43442	158.57863	-528.17505	304.08490	146.48711	-588.16010	100.63976	1351.08789	-840.84186	86.41267	1067.57202	-772.38489	-51.09355	486.98145	-759.42352	-24.18737	206.23047	-660.07654	282.01581	1542.36145	-875.69763	-78.54774	141.20091	-652.28290	-78.41063	1537.47314	-716.82794	-63.05634	760.36847	-729.46289	-39.89766	618.63031	-734.16504	-37.65380	569.96783	-676.01282	174.73146	161.87570	-647.98444	-67.70287	161.97466	-716.16730	69.36988	574.07581	-605.30292	-72.88310	157.75266	-738.54077	281.83850	878.43933	-635.08356	227.83797	796.87610	-759.89423	251.27148	576.44366	-684.01831	12.11542	523.54456	
413	8.240	-678.14697	93.18102	1851.26904	-650.40411	239.68915	1068.45813	-719.83246	147.85632	575.51147	-631.73615	-5.46756	1052.39233	-621.41663	-5.89570	808.66882	-675.14154	51.97880	161.54694	-737.60547	271.16125	745.80414	-697.22479	-74.16389	876.82550	-760.96686	253.89064	642.92963	-701.96088	209.96301	537.84485	-793.06567	261.55920	500.15875	-517.90948	-72.88888	143.74632	-549.24982	-23.94608	163.63980	-794.60498	34.42598	173.44444	-600.32123	27.77445	168.86696	-720.72284	66.89587	218.82332	-714.33801	157.32599	220.09073	-796.82196	182.00255	183.10849	-770.10309	230.85159	203.77487	-593.14655	218.90471	174.57672	-882.45593	296.22400	144.77756	-556.50287	253.82918	164.79393	-659.49854	297.71786	157.52167	-623.61401	306.51965	158.71889	-528.16577	303.85599	146.37946	-589.35663	100.83219	1352.39478	-838.96686	86.03667	1066.86975	-770.50903	-51.50713	487.53842	-759.15594	-24.08661	206.34949	-665.73694	281.76630	1543.44019	-875.41577	-78.86062	141.19371	-657.04199	-78.45716	1538.39722	-713.87897	-62.87229	760.42651	-726.92560	-39.60652	618.69232	-731.89984	-37.89572	569.80591	-676.03687	174.62057	161.77229	-647.87567	-67.67948	162.41898	-714.12042	69.43625	573.79077	-605.47742	-72.68111	157.98796	-735.93317	282.09048	878.49432	-633.13037	228.45006	796.99603	-758.75604	250.87086	575.95056	-681.37799	12.46634	523.37390	
414	8.260	-685.32446	92.98287	1852.15869	-648.64282	239.70805	1068.22473	-718.69452	148.04257	575.54987	-629.59174	-4.45056	1052.75671	-618.63434	-4.77154	808.59589	-675.32758	52.10737	161.24651	-735.95966	271.73682	746.29803	-694.44501	-74.21619	876.65936	-759.63599	253.50270	642.85431	-701.07623	209.69861	537.55316	-792.07452	261.53671	499.99466	-517.85138	-72.82342	143.72452	-548.84229	-23.91396	163.74487	-794.64337	34.47491	173.47365	-600.32123	27.77445	168.86696	-720.06561	67.02464	218.43752	-714.55377	157.74028	219.86107	-796.70099	182.04977	183.07370	-769.93365	230.82697	203.86098	-593.06232	218.97165	174.70468	-882.48688	296.20758	144.78180	-556.47455	253.87822	164.72113	-659.56403	297.66077	157.50681	-623.62201	306.29257	158.59175	-528.11841	303.92108	146.48273	-590.78076	101.09047	1353.88452	-836.83447	86.47779	1066.39319	-768.98743	-50.93126	487.39383	-758.95001	-24.13966	206.48494	-670.48462	282.12744	1544.40027	-875.33441	-78.79063	141.09442	-661.61938	-78.56979	1539.28943	-710.87683	-62.52728	760.32703	-724.73737	-39.58526	618.45166	-729.83173	-37.60865	570.20477	-676.07904	174.42549	161.59061	-647.89551	-67.66506	162.28476	-712.53040	69.85480	574.01587	-605.16119	-72.87830	157.92720	-734.13940	282.05252	877.96606	-631.50421	228.70483	796.87366	-757.65350	251.43263	576.37970	-680.52484	13.05164	522.43170	
415	8.280	-692.04645	92.53963	1852.74854	-646.94489	240.40274	1068.71497	-716.75830	147.90785	575.87476	-626.73315	-4.68345	1053.18127	-616.10492	-4.32704	808.75281	-675.32758	52.10737	161.24651	-734.72577	271.90112	745.91467	-691.66638	-73.53211	876.33533	-758.52417	253.74670	643.07935	-700.33966	209.90686	537.66925	-791.20337	261.43701	499.99585	-517.93726	-72.99813	143.61659	-548.92108	-23.91158	163.80403	-794.60498	34.42598	173.44444	-600.15845	27.68282	168.80345	-720.20087	67.14710	218.53905	-714.37201	157.54337	219.96689	-796.55518	182.05322	183.08566	-769.92853	230.82915	203.98015	-593.19238	218.78088	174.58577	-882.54730	296.17606	144.64073	-556.49072	253.93896	164.70140	-659.71161	297.77029	157.55618	-623.46515	306.44635	158.64610	-528.14941	303.82608	146.41956	-592.04181	101.01592	1355.03613	-834.86456	86.24778	1066.31873	-767.39862	-50.96546	487.27838	-758.85077	-24.11341	206.35550	-675.09131	282.06635	1544.88171	-875.85522	-78.73365	141.22168	-665.99664	-78.42474	1539.99146	-708.44366	-62.06390	760.15051	-722.92596	-39.37319	618.62939	-728.10724	-37.70202	570.38446	-676.09161	174.35124	161.53226	-647.99396	-67.31011	162.08374	-710.89825	70.25550	574.09180	-605.73962	-72.64267	158.12469	-732.67639	282.26730	877.88684	-629.90283	228.85129	796.70160	-756.69965	251.10930	576.27234	-679.16577	13.40614	522.42175	
